<mxfile host="app.diagrams.net" modified="2021-02-03T01:52:48.943Z" agent="5.0 (Macintosh; Intel Mac OS X 10_14_4) AppleWebKit/537.36 (KHTML, like Gecko) Chrome/88.0.4324.96 Safari/537.36" etag="63aZhwrmcWVa-aIV9EMe" version="14.2.9" type="github">
  <diagram id="9kgBsnDXL4ChJy8jIpFO" name="Page-1">
    <mxGraphModel dx="1426" dy="746" grid="1" gridSize="10" guides="1" tooltips="1" connect="1" arrows="1" fold="1" page="1" pageScale="1" pageWidth="827" pageHeight="1169" math="0" shadow="0">
      <root>
        <mxCell id="0" />
        <mxCell id="1" parent="0" />
        <mxCell id="YygiGpPM-IUNLGB-CjkZ-15" value="" style="rounded=0;whiteSpace=wrap;html=1;dashed=1;fillColor=#fff2cc;strokeColor=#d6b656;" vertex="1" parent="1">
          <mxGeometry x="200" y="330" width="200" height="120" as="geometry" />
        </mxCell>
        <mxCell id="YygiGpPM-IUNLGB-CjkZ-2" value="百度云 console" style="rounded=1;whiteSpace=wrap;html=1;fillColor=#d5e8d4;strokeColor=#82b366;" vertex="1" parent="1">
          <mxGeometry x="240" y="140" width="140" height="40" as="geometry" />
        </mxCell>
        <mxCell id="YygiGpPM-IUNLGB-CjkZ-3" value="cce-monitor-service" style="rounded=1;whiteSpace=wrap;html=1;fillColor=#d5e8d4;strokeColor=#82b366;" vertex="1" parent="1">
          <mxGeometry x="240" y="200" width="140" height="40" as="geometry" />
        </mxCell>
        <mxCell id="YygiGpPM-IUNLGB-CjkZ-4" value="日志推送规则&lt;br&gt;ConfigMap" style="rounded=1;whiteSpace=wrap;html=1;fillColor=#d5e8d4;strokeColor=#82b366;" vertex="1" parent="1">
          <mxGeometry x="240" y="260" width="140" height="60" as="geometry" />
        </mxCell>
        <mxCell id="YygiGpPM-IUNLGB-CjkZ-5" value="cce-log-agent" style="rounded=1;whiteSpace=wrap;html=1;" vertex="1" parent="1">
          <mxGeometry x="240" y="340" width="140" height="40" as="geometry" />
        </mxCell>
        <mxCell id="YygiGpPM-IUNLGB-CjkZ-6" value="fluentd" style="rounded=1;whiteSpace=wrap;html=1;" vertex="1" parent="1">
          <mxGeometry x="240" y="400" width="140" height="40" as="geometry" />
        </mxCell>
        <mxCell id="YygiGpPM-IUNLGB-CjkZ-7" value="DB" style="shape=cylinder3;whiteSpace=wrap;html=1;boundedLbl=1;backgroundOutline=1;size=15;" vertex="1" parent="1">
          <mxGeometry x="430" y="190" width="40" height="50" as="geometry" />
        </mxCell>
        <mxCell id="YygiGpPM-IUNLGB-CjkZ-8" value="BOS/ES/Kafka/BLS" style="rounded=1;whiteSpace=wrap;html=1;" vertex="1" parent="1">
          <mxGeometry x="414" y="400" width="140" height="40" as="geometry" />
        </mxCell>
        <mxCell id="YygiGpPM-IUNLGB-CjkZ-9" value="" style="endArrow=classic;html=1;exitX=0.5;exitY=1;exitDx=0;exitDy=0;entryX=0.5;entryY=0;entryDx=0;entryDy=0;" edge="1" parent="1" source="YygiGpPM-IUNLGB-CjkZ-2" target="YygiGpPM-IUNLGB-CjkZ-3">
          <mxGeometry width="50" height="50" relative="1" as="geometry">
            <mxPoint x="390" y="390" as="sourcePoint" />
            <mxPoint x="440" y="340" as="targetPoint" />
          </mxGeometry>
        </mxCell>
        <mxCell id="YygiGpPM-IUNLGB-CjkZ-10" value="" style="endArrow=classic;html=1;exitX=0.5;exitY=1;exitDx=0;exitDy=0;entryX=0.5;entryY=0;entryDx=0;entryDy=0;" edge="1" parent="1" source="YygiGpPM-IUNLGB-CjkZ-3" target="YygiGpPM-IUNLGB-CjkZ-4">
          <mxGeometry width="50" height="50" relative="1" as="geometry">
            <mxPoint x="390" y="390" as="sourcePoint" />
            <mxPoint x="440" y="340" as="targetPoint" />
          </mxGeometry>
        </mxCell>
        <mxCell id="YygiGpPM-IUNLGB-CjkZ-11" value="" style="endArrow=classic;html=1;exitX=0.5;exitY=1;exitDx=0;exitDy=0;entryX=0.5;entryY=0;entryDx=0;entryDy=0;" edge="1" parent="1" source="YygiGpPM-IUNLGB-CjkZ-4" target="YygiGpPM-IUNLGB-CjkZ-5">
          <mxGeometry width="50" height="50" relative="1" as="geometry">
            <mxPoint x="390" y="390" as="sourcePoint" />
            <mxPoint x="440" y="340" as="targetPoint" />
          </mxGeometry>
        </mxCell>
        <mxCell id="YygiGpPM-IUNLGB-CjkZ-12" value="" style="endArrow=classic;html=1;exitX=0.5;exitY=1;exitDx=0;exitDy=0;entryX=0.5;entryY=0;entryDx=0;entryDy=0;" edge="1" parent="1" source="YygiGpPM-IUNLGB-CjkZ-5" target="YygiGpPM-IUNLGB-CjkZ-6">
          <mxGeometry width="50" height="50" relative="1" as="geometry">
            <mxPoint x="390" y="390" as="sourcePoint" />
            <mxPoint x="440" y="340" as="targetPoint" />
          </mxGeometry>
        </mxCell>
        <mxCell id="YygiGpPM-IUNLGB-CjkZ-13" value="" style="endArrow=classic;html=1;exitX=1;exitY=0.5;exitDx=0;exitDy=0;entryX=0;entryY=0.5;entryDx=0;entryDy=0;" edge="1" parent="1" source="YygiGpPM-IUNLGB-CjkZ-6" target="YygiGpPM-IUNLGB-CjkZ-8">
          <mxGeometry width="50" height="50" relative="1" as="geometry">
            <mxPoint x="390" y="390" as="sourcePoint" />
            <mxPoint x="440" y="340" as="targetPoint" />
          </mxGeometry>
        </mxCell>
        <mxCell id="YygiGpPM-IUNLGB-CjkZ-14" value="" style="endArrow=classic;html=1;exitX=1;exitY=0.5;exitDx=0;exitDy=0;entryX=0;entryY=0;entryDx=0;entryDy=30;entryPerimeter=0;" edge="1" parent="1" source="YygiGpPM-IUNLGB-CjkZ-3" target="YygiGpPM-IUNLGB-CjkZ-7">
          <mxGeometry width="50" height="50" relative="1" as="geometry">
            <mxPoint x="390" y="390" as="sourcePoint" />
            <mxPoint x="440" y="340" as="targetPoint" />
          </mxGeometry>
        </mxCell>
        <mxCell id="YygiGpPM-IUNLGB-CjkZ-17" value="node" style="text;html=1;align=center;verticalAlign=middle;resizable=0;points=[];autosize=1;" vertex="1" parent="1">
          <mxGeometry x="200" y="330" width="40" height="20" as="geometry" />
        </mxCell>
      </root>
    </mxGraphModel>
  </diagram>
</mxfile>
